<svg id="Layer_1" data-name="Layer 1" xmlns="http://www.w3.org/2000/svg" viewBox="0 0 28.35 28.35"><defs><style>.cls-1{fill:#272525;}</style></defs><title>R</title><path class="cls-1" d="M13.92,7.63a8.8,8.8,0,0,0-1.65.12v4.47h1.44c1.82,0,2.9-.92,2.9-2.33S15.6,7.66,13.92,7.63ZM0,0V28.35H28.35V0ZM17.11,21.22A21,21,0,0,1,16,17.45c-.44-2-1.13-2.57-2.62-2.59h-1.1v6.36H8.64v-16a31.11,31.11,0,0,1,4.87-.34c2.4,0,4.08.36,5.24,1.27a4.11,4.11,0,0,1,1.48,3.39,4.28,4.28,0,0,1-2.85,4v.07c1.13.46,1.75,1.54,2.16,3,.5,1.82,1,3.93,1.32,4.56Z"/></svg>