<svg id="Layer_1" data-name="Layer 1" xmlns="http://www.w3.org/2000/svg" viewBox="0 0 28.35 28.35"><defs><style>.cls-1{fill:#272525;}</style></defs><title>D</title><path class="cls-1" d="M0,0V28.35H28.35V0ZM19,19.3c-1.7,1.41-4.29,2.09-7.46,2.09a31.57,31.57,0,0,1-4.15-.24V5.26a32,32,0,0,1,4.94-.34c3.07,0,5.06.55,6.62,1.73a7.16,7.16,0,0,1,2.74,6.09A8.22,8.22,0,0,1,19,19.3ZM12.73,7.73a7.78,7.78,0,0,0-1.65.14V18.46a6.86,6.86,0,0,0,1.27.07c3.31,0,5.47-1.8,5.47-5.67C17.85,9.5,15.88,7.73,12.73,7.73Z"/></svg>