<svg id="Layer_1" data-name="Layer 1" xmlns="http://www.w3.org/2000/svg" viewBox="0 0 28.35 28.35"><defs><style>.cls-1{fill:#272525;}</style></defs><title>B</title><path class="cls-1" d="M13.38,14.06H12.13v4.57a14,14,0,0,0,1.42,0c1.66,0,3.12-.62,3.12-2.32S15.21,14.06,13.38,14.06Zm2.91-4.6c0-1.23-.94-1.88-2.6-1.88a9.69,9.69,0,0,0-1.56.1v3.77h1.2C15.25,11.45,16.29,10.66,16.29,9.46ZM0,0V28.35H28.35V0ZM18.83,19.92c-1.18.94-3.14,1.47-6.36,1.47a28.35,28.35,0,0,1-4-.24V5.26a28.16,28.16,0,0,1,4.73-.34A9,9,0,0,1,18,5.83,3.53,3.53,0,0,1,20,9a3.67,3.67,0,0,1-2.67,3.46v0a4.06,4.06,0,0,1,3.22,4A4.3,4.3,0,0,1,18.83,19.92Z"/></svg>