<svg id="Layer_1" data-name="Layer 1" xmlns="http://www.w3.org/2000/svg" viewBox="0 0 28.35 28.35"><defs><style>.cls-1{fill:#272525;}</style></defs><title>Q</title><path class="cls-1" d="M0,0V28.35H28.35V0ZM21,24a55.55,55.55,0,0,1-6.39-2.28,3.93,3.93,0,0,0-1.12-.24c-3.65-.24-7.06-2.93-7.06-8.21,0-4.85,3.07-8.49,7.9-8.49S22,8.52,22,12.94c0,3.67-1.7,6.26-3.84,7.22v.1c1.25.36,2.64.65,3.91.91ZM14.21,7.68c-2.5,0-3.94,2.45-3.94,5.47s1.47,5.43,3.92,5.43,3.91-2.33,3.91-5.5C18.1,10.13,16.71,7.68,14.21,7.68Z"/></svg>