<svg id="Layer_1" data-name="Layer 1" xmlns="http://www.w3.org/2000/svg" viewBox="0 0 28.35 28.35"><defs><style>.cls-1{fill:#272525;}</style></defs><title>S</title><path class="cls-1" d="M0,0V28.35H28.35V0ZM13.24,21.46a10.54,10.54,0,0,1-4.59-1l.75-3a9.35,9.35,0,0,0,4,1c1.68,0,2.57-.7,2.57-1.75s-.77-1.59-2.71-2.29C10.62,13.49,8.87,12,8.87,9.65c0-2.76,2.3-4.87,6.12-4.87a10,10,0,0,1,4.13.81L18.3,8.54a7.74,7.74,0,0,0-3.38-.76c-1.59,0-2.35.72-2.35,1.56,0,1,.91,1.48,3,2.28,2.85,1.05,4.2,2.54,4.2,4.82C19.77,19.15,17.68,21.46,13.24,21.46Z"/></svg>